<svg width="16" height="15" viewBox="0 0 16 15" fill="none" xmlns="http://www.w3.org/2000/svg">
<path d="M15.2992 12.946L11.1563 8.89853C10.7693 8.5204 10.1417 8.5204 9.7547 8.89853C9.36765 9.27667 9.36765 9.88974 9.7547 10.2679L13.8976 14.3153C14.2846 14.6935 14.9121 14.6935 15.2992 14.3153C15.6862 13.9372 15.6862 13.3241 15.2992 12.946Z" fill="black"/>
<path d="M6.3349 0C2.83574 0 0 2.71642 0 6.0678C0 9.41919 2.83574 12.1369 6.3349 12.1369C9.83406 12.1369 12.6685 9.42051 12.6685 6.0678C12.6685 2.7151 9.83272 0 6.3349 0ZM6.3349 10.2676C3.91448 10.2676 1.95117 8.38769 1.95117 6.0678C1.95117 3.74792 3.91448 1.86935 6.3349 1.86935C8.75532 1.86935 10.7173 3.74923 10.7173 6.0678C10.7173 8.38637 8.75532 10.2676 6.3349 10.2676Z" fill="black"/>
<path d="M7.79523 6.06779C7.79523 6.85558 7.14124 7.4945 6.33489 7.4945C5.52853 7.4945 4.87454 6.85558 4.87454 6.06779C4.87454 5.28 5.52853 4.6424 6.33489 4.6424C7.14124 4.6424 7.79523 5.28 7.79523 6.06779Z" fill="black"/>
</svg>
