<svg width="21" height="22" viewBox="0 0 21 22" fill="none" xmlns="http://www.w3.org/2000/svg">
<path d="M3.24264 4.65685L0 1.41421L1.41421 0L4.65685 3.24264H19.8986C20.4509 3.24264 20.8986 3.69035 20.8986 4.24264C20.8986 4.33996 20.8844 4.43676 20.8565 4.52998L18.4565 12.53C18.3296 12.9529 17.9402 13.2426 17.4986 13.2426H5.24264V15.2426H16.2427V17.2426H4.24264C3.69035 17.2426 3.24264 16.7949 3.24264 16.2426V4.65685ZM5.24264 5.24264V11.2426H16.7546L18.5546 5.24264H5.24264ZM4.74264 21.2426C3.91421 21.2426 3.24264 20.571 3.24264 19.7426C3.24264 18.9142 3.91421 18.2426 4.74264 18.2426C5.57107 18.2426 6.24264 18.9142 6.24264 19.7426C6.24264 20.571 5.57107 21.2426 4.74264 21.2426ZM16.7427 21.2426C15.9142 21.2426 15.2427 20.571 15.2427 19.7426C15.2427 18.9142 15.9142 18.2426 16.7427 18.2426C17.5711 18.2426 18.2427 18.9142 18.2427 19.7426C18.2427 20.571 17.5711 21.2426 16.7427 21.2426Z" fill="white"/>
</svg>
