<svg width="20" height="22" viewBox="0 0 20 22" fill="none" xmlns="http://www.w3.org/2000/svg">
<path d="M10 0.595001C4.475 0.595001 0 5.30494 0 11.12C0 15.7773 2.8625 19.711 6.8375 21.1056C7.3375 21.1977 7.525 20.8819 7.525 20.6057C7.525 20.3557 7.5125 19.5268 7.5125 18.6454C5 19.1322 4.35 18.0007 4.15 17.4087C4.0375 17.1061 3.55 16.172 3.125 15.922C2.775 15.7247 2.275 15.2379 3.1125 15.2247C3.9 15.2116 4.4625 15.9878 4.65 16.3036C5.55 17.8955 6.9875 17.4482 7.5625 17.1719C7.65 16.4877 7.9125 16.0273 8.20002 15.7642C5.975 15.501 3.65 14.5933 3.65 10.5674C3.65 9.42284 4.0375 8.47559 4.675 7.73884C4.575 7.47572 4.225 6.39691 4.775 4.94972C4.775 4.94972 5.6125 4.67344 7.525 6.02853C8.32502 5.79172 9.17502 5.67331 10.025 5.67331C10.875 5.67331 11.725 5.79172 12.525 6.02853C14.4375 4.66028 15.275 4.94972 15.275 4.94972C15.825 6.39691 15.475 7.47572 15.375 7.73884C16.0125 8.47559 16.4 9.40969 16.4 10.5674C16.4 14.6064 14.0625 15.501 11.8375 15.7642C12.2 16.0931 12.5125 16.7246 12.5125 17.7113C12.5125 19.119 12.5 20.2504 12.5 20.6057C12.5 20.8819 12.6875 21.2108 13.1875 21.1056C17.258 19.6592 19.9989 15.6419 20 11.12C20 5.30494 15.525 0.595001 10 0.595001Z" fill="#000" id="gitChangeColor"/>
</svg>
