<svg width="18" height="20" viewBox="0 0 18 20" fill="none" xmlns="http://www.w3.org/2000/svg">
<path d="M15.3352 16.7393H12.6697V12.3432C12.6697 11.2949 12.6495 9.94594 11.2807 9.94594C9.89102 9.94594 9.67872 11.0866 9.67872 12.2659V16.7393H7.01322V7.69938H9.57372V8.93154H9.60822C9.96602 8.2211 10.836 7.47125 12.1357 7.47125C14.8365 7.47125 15.336 9.34212 15.336 11.7773L15.3352 16.7393ZM4.00275 6.46243C3.14475 6.46243 2.4555 5.73146 2.4555 4.83237C2.4555 3.93406 3.1455 3.20389 4.00275 3.20389C4.85775 3.20389 5.55075 3.93406 5.55075 4.83237C5.55075 5.73146 4.857 6.46243 4.00275 6.46243ZM5.33925 16.7393H2.66625V7.69938H5.33925V16.7393ZM16.6687 0.595001H1.32825C0.594 0.595001 0 1.20598 0 1.95983V18.1752C0 18.9298 0.594 19.54 1.32825 19.54H16.6665C17.4 19.54 18 18.9298 18 18.1752V1.95983C18 1.20598 17.4 0.595001 16.6665 0.595001H16.6687Z" fill="#026EAA"/>
</svg>
