<svg width="16" height="17" viewBox="0 0 16 17" fill="none" xmlns="http://www.w3.org/2000/svg">
<path d="M7.77346 0.581736C11.8528 0.581736 15.1598 4.06234 15.1598 8.35588C15.1598 12.6494 11.8528 16.13 7.77346 16.13C6.41888 16.13 5.14947 15.7463 4.05802 15.0764L0.390173 16.13L1.38878 12.2674C0.751942 11.1185 0.387085 9.78205 0.387085 8.35588C0.387085 4.06234 3.69407 0.581736 7.77346 0.581736ZM5.10796 4.70851C5.01239 4.71558 4.91869 4.74014 4.83337 4.78608C4.76937 4.82054 4.70995 4.87035 4.6166 4.96314C4.52844 5.05074 4.47735 5.12726 4.42352 5.20103C4.15044 5.57523 4.00368 6.03456 4.0064 6.5064C4.00789 6.88781 4.10202 7.25848 4.25068 7.60459C4.55214 8.30644 5.04928 9.0484 5.70598 9.73649C5.86372 9.90177 6.01826 10.0688 6.18491 10.2232C6.99996 10.9786 7.97127 11.5232 9.02154 11.814C9.02154 11.814 9.43517 11.8808 9.44123 11.8812C9.57825 11.889 9.71504 11.8786 9.85221 11.8712C10.0674 11.8595 10.2774 11.7983 10.4676 11.6917C10.5898 11.6232 10.6476 11.5892 10.7502 11.521C10.7502 11.521 10.7817 11.4987 10.8424 11.4511C10.9421 11.3729 11.0037 11.3178 11.0867 11.2272C11.1479 11.1603 11.2004 11.0813 11.2411 10.9923C11.2988 10.8655 11.357 10.6233 11.3801 10.4222C11.3977 10.2686 11.3924 10.1846 11.3905 10.1326C11.3873 10.0489 11.3217 9.96288 11.2497 9.92634L10.8202 9.72312C10.8202 9.72312 10.1779 9.42895 9.78514 9.24035C9.74422 9.22068 9.69946 9.21158 9.65447 9.20871C9.55594 9.20233 9.44551 9.22939 9.37527 9.30728C9.37158 9.30573 9.32268 9.3502 8.78828 10.0316C8.7588 10.0687 8.68974 10.1493 8.5703 10.1418C8.55228 10.1404 8.53433 10.1377 8.51683 10.1329C8.46845 10.1194 8.42132 10.1017 8.37523 10.0812C8.28386 10.0404 8.2518 10.0249 8.18939 9.99662C7.76297 9.80055 7.37165 9.53825 7.02574 9.21726C6.93297 9.13128 6.8467 9.03869 6.75776 8.94796C6.44739 8.63132 6.19329 8.29455 6.00426 7.96236C5.99394 7.94424 5.97804 7.91804 5.96091 7.88874C5.92998 7.83579 5.89587 7.77282 5.88518 7.7296C5.85772 7.61524 5.93056 7.52335 5.93056 7.52335C5.93056 7.52335 6.11034 7.31648 6.19388 7.20399C6.27424 7.09569 6.34361 6.98981 6.38778 6.91432C6.47479 6.7671 6.50234 6.61496 6.45662 6.49757C6.24939 5.96584 6.03559 5.43697 5.81524 4.91111C5.77174 4.80734 5.64239 4.73193 5.52475 4.71764C5.48491 4.71279 5.4451 4.70793 5.40509 4.70516C5.30607 4.70007 5.20685 4.70119 5.10796 4.70851Z" fill="#2FCE4D"/>
</svg>
